<svg xmlns="http://www.w3.org/2000/svg" width="41" height="44" fill="none" viewBox="0 0 41 44"><path fill="#7D25A9" fill-opacity=".28" stroke="#8E24AA" stroke-width=".5" d="M30.25 39.389c0 .532-.242 1.058-.717 1.557-.476.501-1.178.963-2.064 1.357-1.77.787-4.234 1.28-6.969 1.28-2.735 0-5.199-.493-6.97-1.28-.885-.394-1.587-.856-2.063-1.357-.475-.499-.717-1.025-.717-1.557 0-.533.242-1.059.717-1.558.476-.5 1.178-.963 2.063-1.357 1.771-.786 4.235-1.28 6.97-1.28 2.735 0 5.199.493 6.97 1.28.885.394 1.587.857 2.063 1.357.475.5.717 1.025.717 1.558Z"/><path fill="#7D25A9" fill-rule="evenodd" d="M20.485 20a1 1 0 0 1 1 1v17a1 1 0 0 1-2 0V21a1 1 0 0 1 1-1Z" clip-rule="evenodd"/><path fill="#E91E63" d="M20.485 21.31a9.655 9.655 0 0 0 9.655-9.655C30.14 6.323 25.818 2 20.485 2a9.655 9.655 0 0 0-9.655 9.655 9.655 9.655 0 0 0 9.655 9.655Z"/><path fill="#FF8DB5" d="M17.037 10.966a2.069 2.069 0 1 0 0-4.138 2.069 2.069 0 0 0 0 4.138Z"/></svg>